<svg width="24" height="24" viewBox="0 0 24 24" fill="none" xmlns="http://www.w3.org/2000/svg">
<mask id="mask0_134_74" style="mask-type:alpha" maskUnits="userSpaceOnUse" x="0" y="0" width="24" height="24">
<rect width="24" height="24" rx="0.5" fill="#D9D9D9"/>
</mask>
<g mask="url(#mask0_134_74)">
<path d="M15.3214 13.8536C15.6364 13.5386 15.4133 13 14.9679 13H4.5C4.22386 13 4 12.7761 4 12.5V11.5C4 11.2239 4.22386 11 4.5 11H14.9679C15.4133 11 15.6364 10.4614 15.3214 10.1464L10.9317 5.7567C10.7352 5.56021 10.7366 5.24121 10.9348 5.04647L11.6465 4.34732C11.8422 4.15501 12.1564 4.1564 12.3504 4.35044L19.6464 11.6464C19.8417 11.8417 19.8417 12.1583 19.6464 12.3536L12.3504 19.6496C12.1564 19.8436 11.8422 19.845 11.6465 19.6527L10.9348 18.9535C10.7366 18.7588 10.7352 18.4398 10.9317 18.2433L15.3214 13.8536Z" fill="#2A2A2A"/>
</g>
</svg>
