<svg width="24" height="24" viewBox="0 0 24 24" fill="none" xmlns="http://www.w3.org/2000/svg">
<mask id="mask0_136_75" style="mask-type:alpha" maskUnits="userSpaceOnUse" x="0" y="0" width="24" height="24">
<rect width="24" height="24" transform="matrix(-1 0 0 1 24 0)" fill="#D9D9D9"/>
</mask>
<g mask="url(#mask0_136_75)">
<path d="M14.4498 12L7.0998 19.35C6.8498 19.6 6.72897 19.8917 6.7373 20.225C6.74564 20.5583 6.8748 20.85 7.1248 21.1C7.3748 21.35 7.66647 21.475 7.9998 21.475C8.33314 21.475 8.6248 21.35 8.8748 21.1L16.5748 13.425C16.7748 13.225 16.9248 13 17.0248 12.75C17.1248 12.5 17.1748 12.25 17.1748 12C17.1748 11.75 17.1248 11.5 17.0248 11.25C16.9248 11 16.7748 10.775 16.5748 10.575L8.8748 2.87499C8.6248 2.62499 8.32897 2.50415 7.9873 2.51249C7.64564 2.52082 7.3498 2.64999 7.0998 2.89999C6.8498 3.14999 6.7248 3.44165 6.7248 3.77499C6.7248 4.10832 6.8498 4.39999 7.0998 4.64999L14.4498 12Z" fill="#B2B2B2"/>
</g>
</svg>
